<?xml version="1.0" encoding="UTF-8" standalone="no"?>
<svg
   xmlns:dc="http://purl.org/dc/elements/1.1/"
   xmlns:cc="http://creativecommons.org/ns#"
   xmlns:rdf="http://www.w3.org/1999/02/22-rdf-syntax-ns#"
   xmlns:svg="http://www.w3.org/2000/svg"
   xmlns="http://www.w3.org/2000/svg"
   viewBox="0 0 377.95334 377.95334"
   height="377.95334"
   width="377.95334"
   xml:space="preserve"
   id="svg2"
   version="1.1"><metadata
     id="metadata8"><rdf:RDF><cc:Work
         rdf:about=""><dc:format>image/svg+xml</dc:format><dc:type
           rdf:resource="http://purl.org/dc/dcmitype/StillImage" /></cc:Work></rdf:RDF></metadata><defs
     id="defs6"><clipPath
       id="clipPath18"
       clipPathUnits="userSpaceOnUse"><path
         id="path16"
         d="M 0,283.465 H 283.465 V 0 H 0 Z" /></clipPath><clipPath
       id="clipPath94"
       clipPathUnits="userSpaceOnUse"><path
         id="path92"
         d="M 0,283.465 H 283.465 V 0 H 0 Z" /></clipPath></defs><g
     transform="matrix(1.3333333,0,0,-1.3333333,0,377.95333)"
     id="g10"><g
       id="g12"><g
         clip-path="url(#clipPath18)"
         id="g14"><g
           transform="translate(141.415,87.5557)"
           id="g20"><path
             id="path22"
             style="fill:#1e3e85;fill-opacity:1;fill-rule:nonzero;stroke:none"
             d="m 0,0 c -16.929,0.08 -32.274,8.141 -42.123,20.809 l -32.94,5.311 c -6.332,1.045 -11.88,4.498 -15.618,9.712 -3.296,4.611 -4.833,10.106 -4.425,15.687 -11.563,2.628 -19.468,13.37 -18.626,25.128 -5.736,1.298 -10.739,4.613 -14.19,9.441 -3.738,5.213 -5.211,11.576 -4.165,17.907 0.368,2.247 2.496,3.762 4.743,3.394 L -36.722,92.51 c 8.68,8.288 20.166,13.735 33.039,14.691 0.927,0.069 2.715,0.197 3.694,0.201 0.979,-0.004 2.745,-0.132 3.672,-0.201 12.873,-0.956 24.359,-6.403 33.039,-14.691 l 90.622,14.879 c 2.247,0.368 4.375,-1.147 4.743,-3.394 1.046,-6.331 -0.428,-12.694 -4.165,-17.907 -3.45,-4.828 -8.454,-8.143 -14.19,-9.441 0.841,-11.758 -7.063,-22.5 -18.626,-25.128 C 95.515,45.938 93.977,40.443 90.681,35.832 86.943,30.618 81.395,27.165 75.063,26.12 L 42.123,20.809 C 32.274,8.141 16.93,0.08 0,0" /></g><g
           transform="translate(225.3857,128.1953)"
           id="g24"><path
             id="path26"
             style="fill:#d89a0b;fill-opacity:1;fill-rule:evenodd;stroke:none"
             d="m 0,0 c -2.454,-3.424 -6.091,-5.691 -10.256,-6.383 l -25.918,-4.289 c 1.971,3.986 3.458,8.267 4.387,12.757 0.439,-0.083 0.905,-0.077 1.367,-0.003 L 2.874,7.598 C 2.602,4.883 1.627,2.279 0,0" /></g><g
           transform="translate(233.7549,146.9307)"
           id="g28"><path
             id="path30"
             style="fill:#d89a0b;fill-opacity:1;fill-rule:evenodd;stroke:none"
             d="m 0,0 -39.033,-6.467 c 0.068,3.981 -0.318,7.873 -1.098,11.638 l 53.252,8.82 C 12.419,7.077 7.175,1.191 0,0" /></g><g
           transform="translate(262.627,178.4434)"
           id="g32"><path
             id="path34"
             style="fill:#d89a0b;fill-opacity:1;fill-rule:evenodd;stroke:none"
             d="m 0,0 c -2.455,-3.425 -6.092,-5.691 -10.246,-6.385 l -60.97,-10.099 c -0.261,-0.04 -0.513,-0.111 -0.759,-0.212 -1.604,3.876 -3.653,7.517 -6.088,10.879 L 2.874,7.596 C 2.612,4.88 1.636,2.277 0,0" /></g><g
           transform="translate(57.4443,128.1953)"
           id="g36"><path
             id="path38"
             style="fill:#d89a0b;fill-opacity:1;fill-rule:evenodd;stroke:none"
             d="m 0,0 c 2.454,-3.424 6.091,-5.691 10.255,-6.383 l 25.919,-4.289 C 34.203,-6.686 32.715,-2.405 31.787,2.085 31.348,2.002 30.882,2.008 30.419,2.082 L -2.875,7.598 C -2.602,4.883 -1.627,2.279 0,0" /></g><g
           transform="translate(49.0747,146.9307)"
           id="g40"><path
             id="path42"
             style="fill:#d89a0b;fill-opacity:1;fill-rule:evenodd;stroke:none"
             d="m 0,0 39.034,-6.467 c -0.068,3.981 0.317,7.873 1.097,11.638 l -53.252,8.82 C -12.418,7.077 -7.175,1.191 0,0" /></g><g
           transform="translate(20.2026,178.4434)"
           id="g44"><path
             id="path46"
             style="fill:#d89a0b;fill-opacity:1;fill-rule:evenodd;stroke:none"
             d="m 0,0 c 2.456,-3.425 6.093,-5.691 10.247,-6.385 l 60.969,-10.099 c 0.261,-0.04 0.513,-0.111 0.759,-0.212 1.605,3.876 3.653,7.517 6.088,10.879 L -2.874,7.596 C -2.612,4.88 -1.636,2.277 0,0" /></g><g
           transform="translate(187.0303,159.1909)"
           id="g48"><path
             id="path50"
             style="fill:#d89a0b;fill-opacity:1;fill-rule:nonzero;stroke:none"
             d="m 0,0 c -6.898,17.454 -23.522,30.035 -43.152,31.043 -0.83,0.04 -1.671,0.061 -2.52,0.061 -20.459,0 -38.032,-12.583 -45.395,-30.423 -2.373,-5.752 -3.687,-12.057 -3.687,-18.66 0,-27.062 22.021,-49.071 49.082,-49.071 18.601,0 34.829,10.406 43.151,25.697 3.588,6.602 5.712,14.124 5.913,22.109 0.008,0.425 0.018,0.84 0.018,1.265 C 3.41,-11.634 2.203,-5.575 0,0 m -45.672,-64.788 c -25.816,0 -46.819,21.003 -46.819,46.809 0,25.816 21.003,46.818 46.819,46.818 25.816,0 46.808,-21.002 46.808,-46.818 0,-25.806 -20.992,-46.809 -46.808,-46.809" /></g><g
           transform="translate(116.9282,155.6694)"
           id="g52"><path
             id="path54"
             style="fill:#d89a0b;fill-opacity:1;fill-rule:evenodd;stroke:none"
             d="m 0,0 c 4.64,-4.713 4.047,-4.932 1.798,-6.751 -1.357,-1.103 -0.292,-2.624 0.428,-3.186 0.767,-0.569 5.93,-4.854 6.115,-5.841 0.04,-0.241 0.225,-1.632 0.252,-2.006 0.1,-1.347 -0.272,-1.209 -0.353,-2.029 -0.97,-3.819 -5.026,-10.349 -7.152,-13.962 1.725,-1.16 2.425,-2.163 3.773,-3.155 2.829,0.862 20.033,9.859 20.495,9.812 0.026,-1.33 -4.068,-6.392 -3.798,-7.157 0.125,-0.144 2.888,-2.392 2.961,-2.411 0.019,-0.002 11.629,6.732 12.015,7.233 l -2.043,3.805 c 1.171,-0.345 1.649,-0.457 2.643,-0.571 1.564,-10e-4 2.91,0.639 3.079,2.426 0.04,0.779 0.033,1.392 -0.056,3.005 l 4.806,-1.265 c 2.205,-0.518 8.314,5.646 10.416,7.369 l -2.302,2.619 c -1.859,-0.675 -8.055,-3.226 -10.619,-2.73 1.46,2.137 11.415,12.91 13.209,15.202 0.566,0.691 0.894,0.949 -0.462,2.313 L 53.264,4.549 C 52.189,4.493 35.866,-0.628 34.364,-1.155 29.133,-2.639 27.638,-3.453 24.859,-1.134 L 17.595,3.885 C 14.016,5.475 14.313,1.048 11.695,2.796 8.811,4.914 -3.395,12.441 -5.765,9.977 -7.277,8.198 -1.06,1.015 0,0" /></g></g></g><text
       id="text58"
       style="font-variant:normal;font-weight:bold;font-stretch:normal;font-size:14.99995136px;font-family:AvantGardeC;-inkscape-font-specification:AvantGardeGothicC-Demi;writing-mode:lr-tb;fill:#d89a0b;fill-opacity:1;fill-rule:nonzero;stroke:none"
       transform="matrix(0.68788221,-0.72582233,-0.72582233,-0.68788221,103.9316,116.1792)"><tspan
         id="tspan56"
         y="0"
         x="0">A</tspan></text>
<text
       id="text62"
       style="font-variant:normal;font-weight:bold;font-stretch:normal;font-size:14.99993992px;font-family:AvantGardeC;-inkscape-font-specification:AvantGardeGothicC-Demi;writing-mode:lr-tb;fill:#d89a0b;fill-opacity:1;fill-rule:nonzero;stroke:none"
       transform="matrix(0.81667658,-0.57709563,-0.57709563,-0.81667658,113.0327,107.3013)"><tspan
         id="tspan60"
         y="0"
         x="0">I</tspan></text>
<text
       id="text66"
       style="font-variant:normal;font-weight:bold;font-stretch:normal;font-size:15.00003242px;font-family:AvantGardeC;-inkscape-font-specification:AvantGardeGothicC-Demi;writing-mode:lr-tb;fill:#d89a0b;fill-opacity:1;fill-rule:nonzero;stroke:none"
       transform="matrix(0.90185808,-0.43203241,-0.43203241,-0.90185808,117.6104,103.9839)"><tspan
         id="tspan64"
         y="0"
         x="0">R</tspan></text>
<text
       id="text70"
       style="font-variant:normal;font-weight:bold;font-stretch:normal;font-size:15.00000477px;font-family:AvantGardeC;-inkscape-font-specification:AvantGardeGothicC-Demi;writing-mode:lr-tb;fill:#d89a0b;fill-opacity:1;fill-rule:nonzero;stroke:none"
       transform="matrix(0.97559301,-0.21958659,-0.21958659,-0.97559301,127.165,99.6313)"><tspan
         id="tspan68"
         y="0"
         x="0">B</tspan></text>
<text
       id="text74"
       style="font-variant:normal;font-weight:bold;font-stretch:normal;font-size:15.00003242px;font-family:AvantGardeC;-inkscape-font-specification:AvantGardeGothicC-Demi;writing-mode:lr-tb;fill:#d89a0b;fill-opacity:1;fill-rule:nonzero;stroke:none"
       transform="matrix(0.99971785,-0.02375328,-0.02375328,-0.99971785,137.3008,97.6255)"><tspan
         id="tspan72"
         y="0"
         x="0">L</tspan></text>
<text
       id="text78"
       style="font-variant:normal;font-weight:bold;font-stretch:normal;font-size:14.99999332px;font-family:AvantGardeC;-inkscape-font-specification:AvantGardeGothicC-Demi;writing-mode:lr-tb;fill:#d89a0b;fill-opacity:1;fill-rule:nonzero;stroke:none"
       transform="matrix(0.97810044,0.20813343,0.20813343,-0.97810044,145.3613,97.2485)"><tspan
         id="tspan76"
         y="0"
         x="0">O</tspan></text>
<text
       id="text82"
       style="font-variant:normal;font-weight:bold;font-stretch:normal;font-size:15.00003433px;font-family:AvantGardeC;-inkscape-font-specification:AvantGardeGothicC-Demi;writing-mode:lr-tb;fill:#d89a0b;fill-opacity:1;fill-rule:nonzero;stroke:none"
       transform="matrix(0.86689802,0.49848553,0.49848553,-0.86689802,159.9624,100.8203)"><tspan
         id="tspan80"
         y="0"
         x="0">C</tspan></text>
<text
       id="text86"
       style="font-variant:normal;font-weight:bold;font-stretch:normal;font-size:15.00000668px;font-family:AvantGardeC;-inkscape-font-specification:AvantGardeGothicC-Demi;writing-mode:lr-tb;fill:#d89a0b;fill-opacity:1;fill-rule:nonzero;stroke:none"
       transform="matrix(0.70393303,0.71026636,0.71026636,-0.70393303,171.7095,108.0923)"><tspan
         id="tspan84"
         y="0"
         x="0">K</tspan></text>
<g
       id="g88"><g
         clip-path="url(#clipPath94)"
         id="g90"><g
           transform="translate(134.2441,181.4326)"
           id="g96"><path
             id="path98"
             style="fill:#d89a0b;fill-opacity:1;fill-rule:nonzero;stroke:none"
             d="m 0,0 v -7.005 c 0,-0.9 0.09,-2.37 1.74,-2.37 1.635,0 1.71,1.485 1.71,2.37 V 0 h 2.055 v -6.93 c 0,-3.15 -1.74,-4.44 -3.78,-4.44 -1.545,0 -3.78,0.78 -3.78,4.44 l 0,6.93 z" /></g><g
           transform="translate(147.6396,175.1929)"
           id="g100"><path
             id="path102"
             style="fill:#d89a0b;fill-opacity:1;fill-rule:nonzero;stroke:none"
             d="M 0,0 -1.26,3.24 -2.52,0 Z m -2.085,6.24 h 1.649 L 4.185,-4.86 H 1.92 L 0.78,-1.995 H -3.3 L -4.439,-4.86 h -2.266 z" /></g></g></g></g></svg>