<?xml version="1.0" standalone="no"?>
<!DOCTYPE svg PUBLIC "-//W3C//DTD SVG 20010904//EN"
 "http://www.w3.org/TR/2001/REC-SVG-20010904/DTD/svg10.dtd">
<svg version="1.0" xmlns="http://www.w3.org/2000/svg"
 width="300.000000pt" height="144.000000pt" viewBox="0 0 300.000000 144.000000"
 preserveAspectRatio="xMidYMid meet">
<metadata>
Created by potrace 1.10, written by Peter Selinger 2001-2011
</metadata>
<g transform="translate(0.000000,144.000000) scale(0.100000,-0.100000)"
fill="#dbba14" stroke="none">
<path d="M109 1283 c-23 -27 -16 -120 14 -179 29 -58 64 -90 124 -118 37 -16
42 -22 48 -64 14 -96 84 -187 162 -213 24 -8 33 -17 33 -33 0 -46 31 -123 65
-163 53 -62 98 -79 309 -113 l189 -30 68 -65 c73 -68 176 -125 264 -145 88
-20 210 -15 301 14 88 28 201 100 250 159 l29 35 195 32 c149 24 206 38 243
57 74 41 127 123 127 200 0 35 3 39 44 56 87 36 155 129 156 212 0 38 3 41 44
58 54 22 112 79 137 132 12 25 19 63 19 102 0 52 -3 64 -20 73 -15 8 -137 -9
-509 -70 l-490 -81 -48 37 c-109 84 -262 131 -390 120 -121 -11 -251 -64 -325
-133 l-26 -25 -494 81 c-271 45 -496 81 -499 81 -4 0 -13 -7 -20 -17z m1565
-63 c326 -101 465 -503 273 -791 -97 -146 -256 -229 -436 -229 -141 0 -245 40
-346 132 -123 112 -181 250 -173 412 8 145 64 268 167 364 57 53 188 119 261
131 72 13 177 4 254 -19z m-1033 -95 l406 -68 -31 -53 c-18 -30 -38 -53 -48
-54 -42 -1 -670 110 -695 123 -37 20 -59 45 -78 91 l-16 39 28 -6 c15 -3 211
-35 434 -72z m2194 48 c-9 -38 -42 -81 -75 -98 -23 -12 -659 -125 -704 -125
-8 0 -28 25 -44 55 l-30 54 47 7 c25 4 213 35 416 69 204 35 376 63 384 64 9
1 11 -6 6 -26z m-2143 -294 l258 -42 -6 -56 c-4 -31 -8 -58 -10 -60 -6 -7
-397 59 -440 75 -49 17 -77 46 -99 98 l-16 39 28 -6 c15 -3 144 -24 285 -48z
m1943 24 c-9 -39 -42 -81 -76 -99 -27 -14 -456 -90 -463 -83 -2 2 -7 29 -10
60 l-7 56 268 45 c147 25 274 46 282 47 9 1 11 -6 6 -26z m-1898 -268 c81 -14
162 -27 180 -30 28 -5 33 -12 52 -67 12 -34 20 -63 18 -64 -2 -2 -67 7 -144
20 -143 25 -184 39 -215 73 -17 19 -52 93 -44 93 3 0 71 -11 153 -25z m1698
-2 c-9 -38 -42 -81 -75 -98 -21 -11 -290 -65 -323 -65 -2 0 6 29 17 64 l21 65
70 11 c39 7 115 20 170 30 136 24 128 25 120 -7z"/>
<path d="M1415 1218 c-88 -16 -194 -75 -260 -143 -97 -99 -145 -216 -145 -356
0 -276 224 -501 500 -502 139 0 256 49 355 146 204 201 202 516 -3 718 -123
120 -281 169 -447 137z m73 -130 c-13 -27 -57 -23 -62 5 -10 48 -12 87 -4 87
4 0 8 -15 8 -33 0 -40 22 -73 40 -62 8 5 11 22 7 51 -2 24 -2 46 2 50 10 10
19 -80 9 -98z m116 36 c18 -57 16 -82 -4 -45 -13 25 -55 28 -64 5 -4 -9 -9
-14 -12 -11 -7 7 44 107 54 107 5 0 16 -25 26 -56z m-336 -159 c30 -14 67 -34
84 -46 25 -18 33 -20 53 -9 20 11 29 8 76 -24 30 -20 64 -36 77 -36 13 0 76
16 140 36 112 36 140 37 149 8 1 -5 -29 -45 -67 -88 -39 -43 -70 -82 -70 -87
0 -4 25 -1 55 7 88 23 99 5 29 -49 -37 -29 -51 -35 -79 -30 -29 5 -34 3 -37
-18 -2 -18 -10 -25 -30 -27 -24 -3 -27 -6 -18 -22 9 -17 4 -23 -30 -45 -68
-43 -89 -50 -103 -36 -9 9 -8 18 6 42 9 17 17 34 17 37 0 4 -48 -16 -107 -45
-104 -50 -109 -52 -126 -34 -18 17 -17 20 17 85 47 89 48 126 1 162 -33 24
-48 64 -25 64 21 0 8 27 -40 85 -49 58 -63 95 -37 95 6 0 36 -11 65 -25z m601
-533 l36 -11 -43 4 -44 3 23 -24 c36 -38 9 -28 -33 13 -41 40 -54 71 -14 34
l24 -23 -3 44 -4 43 11 -36 c9 -29 18 -38 47 -47z m-632 46 c-31 -79 -40 -98
-48 -98 -13 0 -11 11 11 53 11 20 18 37 16 37 -18 0 -34 -14 -29 -26 3 -8 0
-14 -6 -14 -6 0 -11 5 -11 10 0 6 -11 8 -27 4 -39 -9 -20 7 30 27 52 21 71 23
64 7z m63 -43 c0 -12 -65 -95 -68 -86 -4 11 49 90 61 91 4 0 7 -2 7 -5z m465
-14 c-6 -5 -21 -11 -35 -13 -17 -2 -26 -10 -28 -26 -7 -50 52 -71 81 -29 9 12
16 16 16 10 1 -19 -36 -53 -57 -53 -25 0 -62 36 -62 60 0 28 35 60 67 60 17 0
23 -4 18 -9z m-395 -49 c0 -15 -7 -26 -19 -29 -12 -3 -21 -16 -24 -32 -4 -25
-4 -25 -12 8 -8 32 -8 33 -20 12 -23 -44 -23 -7 0 40 24 46 26 48 50 37 17 -7
25 -19 25 -36z m80 -7 c7 -8 8 -19 3 -27 -4 -7 -8 -24 -8 -38 0 -21 -5 -26
-33 -28 l-33 -3 7 48 c3 26 8 51 11 56 7 12 40 8 53 -8z m200 -5 c35 -35 20
-83 -32 -95 -52 -13 -88 56 -51 97 21 24 58 23 83 -2z m-129 -90 c10 0 19 -4
19 -9 0 -5 -12 -8 -27 -7 -19 2 -28 9 -27 20 0 9 2 35 4 59 4 42 4 42 7 -10 3
-45 7 -53 24 -53z"/>
<path d="M1566 1143 c-12 -12 -6 -33 9 -33 8 0 15 6 15 14 0 17 -14 28 -24 19z"/>
<path d="M1317 381 c-3 -12 1 -22 11 -26 23 -9 38 11 22 30 -17 20 -27 19 -33
-4z"/>
<path d="M1410 349 c0 -12 5 -19 12 -17 18 6 20 25 3 31 -10 5 -15 0 -15 -14z"/>
<path d="M1397 300 c-4 -15 0 -20 13 -20 25 0 36 20 19 31 -21 13 -26 11 -32
-11z"/>
<path d="M1586 357 c-26 -19 -18 -71 12 -75 13 -2 30 2 38 8 20 18 17 57 -5
70 -25 13 -24 13 -45 -3z"/>
</g>
</svg>
